<svg xmlns="http://www.w3.org/2000/svg" enable-background="new 0 0 1024 1024"
        version="1.1" viewBox="0 0 793.05743 787.03845" id="svg6">

<path
d="m 45.717351,575.19212 c -7.1422,-15.245 -15.127,-29.719 -20.668,-45.257 -6.819,-19.119 -13.028,-38.499 -16.8,-58.445 -3.0813,-16.293 -5.1586,-32.783 -6.9193,-49.325 -1.75479997,-16.487 -1.59029997,-32.921 -0.56210997,-49.284 0.98683997,-15.705 3.07399997,-31.376 5.54769997,-46.991 4.2451,-26.797 11.766,-52.715 21.883,-77.656 11.201,-27.614 25.613,-53.748 43.122,-78.054 14.225,-19.747 29.667999,-38.364 46.981999,-55.544 29.686,-29.456999 63.155,-53.695999 100.29,-72.577999 37,-18.813 76.193,-31.223 117.45,-37.2820003 26.791,-3.93450004 53.653,-5.60350004 80.574,-4.38380004 13.504,0.61180004 27.072,2.44940004 40.548,4.53820004 23.905,3.7055 47.271,9.3831003 70.199,16.9740003 15.186,5.0275 29.704,11.688 44.109,18.566 27.469,13.115 52.757,29.781 76.273,48.964 25.202,20.557999 47.17,44.337999 66.918,70.212999 15.807,20.71 29.398,42.779 40.828,66.112 8.6987,17.756 16.305,36.011 21.438,55.235 4.2877,16.057 9.1292,31.993 11.504,48.464 5.7301,39.74 6.2513,79.501 0.90802,119.41 -3.8433,28.703 -11.197,56.458 -21.463,83.343 -7.5719,19.83 -17.076,38.892 -28.222,57.114 -6.6013,10.792 -13.352,21.496 -20.885,31.588 -11.22,15.03 -22.951,29.677 -36.336,42.975 -7.5477,7.4993 -14.875,15.237 -22.926,22.182 -10.695,9.2257 -21.568,18.227 -33.059,26.512 -15.272,11.011 -31.641,20.203 -47.868,29.59 -9.1612,5.2994 -19.314,8.8614 -28.905,13.446 -17.964,8.586 -37.134,13.602 -56.166,18.937 -13.281,3.7226 -27,5.6243 -40.614,7.792 -17.737,2.824 -35.628,4.6371 -53.583,4.6895 -22.276,0.0649 -44.383,-2.0448 -66.43,-5.6376 -24.232,-3.9491 -47.711,-10.531 -70.905,-18.208 -13.107,-4.3385 -25.401,-10.819 -37.942,-16.603 -18.948,-8.7397 -36.269,-20.222 -53.514,-31.837 -15.358,-10.344 -29.607,-22.126 -43.122,-34.689 -12.64,-11.75 -24.488,-24.276 -35.750999,-37.49 -17.171,-20.146 -31.116,-42.281 -44.636,-64.818 -0.42668,-0.7113 -0.75061,-1.4843 -1.2985,-2.5569 m 393.059999,-257.38 c -12.318,-7.5777 -24.551,-15.299 -36.979,-22.693 -12.443,-7.4031 -25.083,-14.475 -37.632,-21.702 -3.3985,-1.9572 -6.4565,-2.9488 -10.682,-1.106 -6.693,2.9191 -12.078,7.5616 -17.507,11.996 -9.6667,7.8956 -19.723,15.219 -29.817,22.525 -10.917,7.9006 -22.733,14.289 -34.306,21.122 -19.001,11.218 -38.492,21.163 -59.905,26.895 -4.2349,1.1335 -4.7253,3.9845 -3.4798,7.2784 2.3679,6.2619 5.6857,11.5 13.445,12.258 4.1689,0.40686 8.2556,0.81677 12.408,0.21744 18.26,-2.6356 35.35,-8.7057 51.79,-17.005 25.747,-12.997 49.185,-29.241 70.867,-48.232 7.2468,-6.3474 14.715,-12.386 21.02,-19.711 1.4515,-1.6865 3.0499,-2.5954 5.1758,-1.0506 2.8051,2.0385 5.6305,4.0489 9.0791,6.5251 -6.8966,8.0094 -12.915,16.517 -20.433,23.381 -11.868,10.836 -22.327,23.304 -36.446,31.668 -10.424,6.1752 -19.783,14.032 -30.578,19.717 -14.184,7.4686 -29.12,13.062 -44.206,18.278 -13.485,4.6624 -27.276,7.2164 -41.629,4.7194 -2.8061,-0.4881 -4.0495,1.1573 -3.646,3.8809 0.70526,4.7603 1.3401,9.5418 2.3193,14.249 5.6346,27.086 8.4144,54.401 7.4533,82.103 -0.54816,15.798 -1.267,31.539 -4.0829,47.142 -3.6006,19.951 -6.9947,39.979 -13.607,59.178 -2.265,6.5761 -3.951,14.161 -11.572,17.728 -2.3838,1.1158 -2.6257,4.2581 -2.7754,6.6747 -0.4794,7.7392 -0.96957,15.507 -0.75638,23.245 0.0864,3.1376 -0.95129,4.085 -3.4703,4.8832 -1.3214,0.41888 -3.0279,0.14636 -3.9696,1.6116 4.0338,3.0939 9.3246,1.6998 10.389,-3.0401 0.82553,-3.6757 2.478,-4.738 5.9709,-3.7723 1.2492,0.34534 2.6531,0.26386 3.9759,0.18982 9.5963,-0.53662 14.37,-5.9097 13.552,-15.187 -0.10263,-1.1639 -0.31625,-2.3774 1.2084,-2.9119 2.0534,0.901 0.67511,3.4953 2.4813,5.2326 v -10.517 c 0.46738,5.4335 -3.8339,2.4955 -5.9587,3.2791 -3.9882,1.4709 -7.3483,1.2372 -9.3006,-3.541 -2.1324,-5.2187 -1.7942,-7.9852 2.5023,-11.387 3.9426,-3.1212 7.2721,-6.7276 10.138,-10.894 11.41,-16.586 22.387,-33.442 32.417,-50.901 12.855,-22.377 24.463,-45.386 35.346,-68.786 2.5341,-5.4487 4.2975,-11.451 8.6257,-16.791 5.2069,6.3769 11.33,10.439 18.386,13.208 2.7874,1.0938 1.8115,2.9848 0.49338,4.8108 -5.6459,7.8217 -11.231,15.687 -16.865,23.518 -13.303,18.492 -26.454,37.087 -39.055,56.069 -10.491,15.804 -21.06,31.557 -31.738,47.235 -3.6404,5.3446 -3.839,7.187 0.0586,13.779 1.5438,0.18109 2.3712,-1.0015 3.3834,-1.8165 6.0883,-4.9029 12.021,-10.014 18.281,-14.686 20.38,-15.206 40.455,-30.829 62.079,-44.316 16.226,-10.12 32.493,-20.219 49.71,-28.503 22.008,-10.59 44.077,-21.163 67.485,-28.487 3.5507,-1.1108 4.8027,-3.1993 3.4556,-6.824 -2.3846,-6.4155 -3.2878,-13.205 -4.8981,-19.805 -5.2707,-21.601 -5.8065,-43.502 -5.2814,-65.483 0.34119,-14.284 2.2023,-28.426 4.4525,-42.586 2.375,-14.945 7.7506,-28.864 11.979,-43.186 0.47485,-1.6086 1.366,-2.8343 3.2192,-2.257 5.3224,1.658 10.313,4.4561 13.935,8.3903 2.4702,2.683 -1.7856,5.9296 -2.5059,9.0807 -0.22162,0.9696 -0.55456,1.9132 -0.8009,2.8778 -4.5734,17.906 -8.2886,35.992 -9.7081,54.431 -0.71362,9.2684 -1.8957,18.568 -1.0817,27.91 0.84998,9.7554 1.594,19.524 2.6943,29.253 1.3268,11.732 3.8621,23.244 7.0571,34.611 0.92963,3.3076 2.6297,4.5778 6.2524,3.6191 5.943,-1.5726 11.967,-2.943 18.036,-3.8971 3.8339,-0.60272 4.4058,-2.371 3.9838,-5.7953 -1.3817,-11.213 -2.9102,-22.434 -3.6125,-33.699 -1.0977,-17.608 -1.4805,-35.253 -0.14557,-52.888 1.2809,-16.923 3.4253,-33.717 7.374,-50.242 0.58624,-2.4536 0.87048,-4.495 -1.7464,-6.0316 -13.919,-8.1729 -27.798,-16.414 -42.302,-25.039 m 102.73,-205.68 c -13.949,-9.0777 -29.112,-16.032999 -43.146,-25.032999 -11.456,-7.3469 -23.853,-13.227 -35.836,-19.751 -1.83,-0.99644 -3.4594,-1.8623 -4.999,0.72144 -9.2248,15.481 -17.164,31.451 -20.676,49.351999 -2.363,12.043 -2.0543,24.022 -0.9848,36.175 0.7771,8.8315 3.5974,15.487 11.911,19.638 8.6085,4.2982 16.982,9.0963 25.285,13.971 19.798,11.624 39.478,23.449 59.253,35.111 2.2695,1.3384 4.8219,2.2123 7.2805,3.2094 1.636,0.66339 3.3613,0.76962 4.5819,-0.76016 3.7978,-4.7599 9.4569,-6.726 14.518,-9.4218 24.059,-12.816 40.902,-32.578 54.276,-55.707 3.7621,-6.5064 3.3459,-7.2351 -3.2238,-10.655 -6.0512,-3.1501 -12.183,-6.1504 -18.173,-9.4115 -16.498,-8.9817 -32.941,-18.065 -50.067,-27.437 m -60.378,579.96 c 8.0109,1.5062 16.018,3.0349 24.034,4.5122 8.0443,1.4825 15.601,4.6842 23.515,6.6121 7.6704,1.8685 14.838,5.3632 22.458,7.4109 -1.0422,-2.2524 -3.0155,-2.8546 -4.7424,-3.7754 -26.226,-13.983 -54.297,-22.682 -83.334,-28.238 -23.741,-4.5427 -47.812,-6.0701 -71.986,-6.2064 -34.482,-0.19434 -68.938,1.5862 -103.4,1.4667 -21.884,-0.0759 -43.704,-1.4457 -65.422,-5.7338 -12.846,-2.5362 -25.17,-5.9736 -37.307,-10.505 -3.683,-1.3749 -8.7409,-1.7111 -10.889,-3.6384 -4.4815,-4.021 -9.7805,-6.3782 -14.534,-9.6898 -9.6525,-6.7243 -19.564,-13.114 -27.634,-21.778 -15.369,-16.502 -27.365,-35.034 -34.646999,-56.599 -4.9559,-14.677 -7.547,-29.595 -7.6222,-45.032 -0.0128,-2.6379 1.6283,-5.2958 -0.0243,-8.5772 -0.62938,1.8267 -1.2547,3.0305 -1.45,4.3005 -2.8266,18.378 -5.3932,36.459 -1.6892,55.381 6.2538,31.947 22.373999,57.873 45.369999,79.663 17.968,17.025 38.466,30.147 63.058,36.855 19.427,5.2988 38.964,8.4865 58.906,9.3815 20.13,0.9035 40.252,-0.14362 60.321,-2.1197 8.9332,-0.87964 18.003,-0.73022 26.844,-2.1147 23.069,-3.6127 46.38,-3.7843 69.579,-5.3184 23.302,-1.5409 46.547,1.0079 70.598,3.7432 m 39.967,-398.56 c 2.5306,-4.5131 -1.6641,-5.8444 -3.9442,-7.7195 -13.968,-11.488 -30.723,-18.469 -45.987,-27.887 -25.307,-15.614 -51.594,-29.635 -77.399,-44.447 -4.8958,-2.8102 -9.9747,-2.0757 -15.05,-1.5695 -1.8424,0.18378 -3.4111,1.7611 -2.9298,3.9605 1.013,4.6291 -0.69345,8.5981 -2.9742,12.299 -2.0909,3.3928 -1.1972,5.3014 2.0378,7.1691 13.236,7.6416 26.353,15.489 39.57,23.163 15.232,8.8437 30.554,17.532 45.781,26.385 14.517,8.4395 28.686,17.471 43.661,25.129 4.4482,2.2749 7.4426,1.22 10.306,-2.4847 3.1177,-4.0337 4.6699,-8.7736 6.9287,-13.998 m 0.18359,-66.306 c -23.03,-11.629 -44.309,-26.284 -66.891,-38.7 -12.958,-7.1241 -25.51,-14.984 -38.256,-22.495 -1.5376,-0.90601 -3.2233,-2.3965 -4.9246,-0.64896 -1.3795,1.4169 -2.4068,3.2615 -2.1099,5.4108 0.28564,2.0677 2.0391,2.9062 3.5839,3.8815 1.3876,0.87598 3.3551,1.6773 2.2369,3.733 -1.0479,1.9264 -2.7769,3.3514 -5.3151,2.8764 -1.5313,-0.28665 -2.7314,-2.1032 -4.6904,-0.98364 0.53436,2.2424 2.5239,3.0188 4.1175,4.0203 10.121,6.3608 20.528,12.249 30.744,18.46 20.448,12.431 41.352,24.11 62.01,36.198 10.902,6.3792 21.622,13.069 32.538,19.422 7.5198,4.3763 7.6378,4.2462 12.398,-2.7287 1.2089,-1.7715 2.0227,-3.8154 3.2562,-5.5663 2.3206,-3.2937 0.72681,-4.8634 -2.1722,-6.5877 -8.7075,-5.1787 -17.266,-10.609 -26.525,-16.293 m -66.563,66.659 c -17.283,-10.277 -34.71,-20.305 -52.122,-30.357 -11.36,-6.558 -22.905,-12.783 -34.216,-19.421 -1.9831,-1.1638 -3.886,-2.3292 -5.5936,0.22598 -2.7399,4.0999 -6.0703,7.8397 -8.1091,12.712 3.2838,1.9845 6.2903,4.0641 9.5179,5.7099 22.851,11.652 44.374,25.576 66.395,38.65 17.015,10.102 34.173,19.962 51.138,30.145 10.321,6.1949 10.102,6.2161 16.549,-4.0701 2.5346,-4.0441 1.692,-6.0762 -1.9721,-8.3832 -13.516,-8.5102 -27.017,-17.04 -41.587,-25.212 z"
id="path2"/>
<path
d="m 354.92735,413.26212 c -0.83041,1.494 -1.4207,2.6974 -2.1734,3.7888 -2.5987,3.7676 -2.6729,6.7957 0.11121,11.147 9.0173,14.094 3.4913,34.192 -10.725,41.577 -14.9,7.7396 -34.287,1.4478 -40.981,-14.043 -4.951,-11.456 -2.9836,-22.551 5.1073,-32.233 7.4092,-8.8669 19.789,-12.046 31.916,-7.738 4.286,1.5223 6.2097,0.41284 8.3966,-3.1377 15.53,-25.214 32.364,-49.569 48.845,-74.16 5.2571,-7.844 10.266,-15.941 15.123,-24.086 0.59711,-1.0011 1.1534,-2.029 1.7955,-3.0002 1.3422,-2.03 3.1343,-2.4293 5.1348,-1.0814 2.1883,1.4743 1.2019,3.2543 0.0539,4.7301 -4.5123,5.8007 -8.0216,12.245 -12.025,18.371 -15.023,22.988 -30.174,45.892 -45.36,68.773 -2.2343,3.3666 -4.142,6.8038 -5.2198,11.094 z"
id="path4"/>
        </svg>
